<mxfile host="app.diagrams.net" modified="2022-08-21T13:50:32.939Z" agent="5.0 (Windows NT 10.0; Win64; x64) AppleWebKit/537.36 (KHTML, like Gecko) Chrome/104.0.0.0 Safari/537.36" etag="0X0499AknwLNOp7bAi4e" version="20.2.5" type="github">
  <diagram id="0tpimPfCp2_2pHjLGBg5" name="第 1 页">
    <mxGraphModel dx="1422" dy="1923" grid="1" gridSize="10" guides="1" tooltips="1" connect="1" arrows="1" fold="1" page="1" pageScale="1" pageWidth="827" pageHeight="1169" math="0" shadow="0">
      <root>
        <mxCell id="0" />
        <mxCell id="1" parent="0" />
        <mxCell id="lJokzmWv3TQioNyGY8T8-1" value="" style="rounded=0;whiteSpace=wrap;html=1;fillColor=none;" vertex="1" parent="1">
          <mxGeometry x="120" y="-30" width="1410" height="1330" as="geometry" />
        </mxCell>
        <mxCell id="lJokzmWv3TQioNyGY8T8-3" value="" style="ellipse;whiteSpace=wrap;html=1;aspect=fixed;" vertex="1" parent="1">
          <mxGeometry x="340" y="40" width="20" height="20" as="geometry" />
        </mxCell>
        <mxCell id="lJokzmWv3TQioNyGY8T8-6" value="" style="group" vertex="1" connectable="0" parent="1">
          <mxGeometry x="120" y="350" width="240" height="20" as="geometry" />
        </mxCell>
        <mxCell id="lJokzmWv3TQioNyGY8T8-4" value="" style="ellipse;whiteSpace=wrap;html=1;aspect=fixed;" vertex="1" parent="lJokzmWv3TQioNyGY8T8-6">
          <mxGeometry x="220" width="20" height="20" as="geometry" />
        </mxCell>
        <mxCell id="lJokzmWv3TQioNyGY8T8-5" value="" style="endArrow=none;html=1;rounded=0;" edge="1" parent="lJokzmWv3TQioNyGY8T8-6" target="lJokzmWv3TQioNyGY8T8-4">
          <mxGeometry width="50" height="50" relative="1" as="geometry">
            <mxPoint y="10" as="sourcePoint" />
            <mxPoint x="80" y="-40" as="targetPoint" />
          </mxGeometry>
        </mxCell>
        <mxCell id="lJokzmWv3TQioNyGY8T8-7" value="230 mm" style="edgeLabel;html=1;align=center;verticalAlign=middle;resizable=0;points=[];" vertex="1" connectable="0" parent="lJokzmWv3TQioNyGY8T8-5">
          <mxGeometry x="0.0667" y="1" relative="1" as="geometry">
            <mxPoint as="offset" />
          </mxGeometry>
        </mxCell>
        <mxCell id="lJokzmWv3TQioNyGY8T8-8" value="" style="ellipse;whiteSpace=wrap;html=1;aspect=fixed;" vertex="1" parent="1">
          <mxGeometry x="490" y="350" width="20" height="20" as="geometry" />
        </mxCell>
        <mxCell id="lJokzmWv3TQioNyGY8T8-11" value="" style="endArrow=none;html=1;rounded=0;" edge="1" parent="1">
          <mxGeometry width="50" height="50" relative="1" as="geometry">
            <mxPoint x="360" y="360" as="sourcePoint" />
            <mxPoint x="490" y="360" as="targetPoint" />
          </mxGeometry>
        </mxCell>
        <mxCell id="lJokzmWv3TQioNyGY8T8-12" value="154mm" style="edgeLabel;html=1;align=center;verticalAlign=middle;resizable=0;points=[];" vertex="1" connectable="0" parent="lJokzmWv3TQioNyGY8T8-11">
          <mxGeometry x="0.0667" y="1" relative="1" as="geometry">
            <mxPoint as="offset" />
          </mxGeometry>
        </mxCell>
        <mxCell id="lJokzmWv3TQioNyGY8T8-13" value="" style="rounded=0;whiteSpace=wrap;html=1;fillColor=none;" vertex="1" parent="1">
          <mxGeometry x="850" width="350" height="350" as="geometry" />
        </mxCell>
        <mxCell id="lJokzmWv3TQioNyGY8T8-16" value="" style="endArrow=none;html=1;rounded=0;" edge="1" parent="1">
          <mxGeometry width="50" height="50" relative="1" as="geometry">
            <mxPoint x="850" y="360" as="sourcePoint" />
            <mxPoint x="510" y="359.67" as="targetPoint" />
          </mxGeometry>
        </mxCell>
        <mxCell id="lJokzmWv3TQioNyGY8T8-17" value="350mm" style="edgeLabel;html=1;align=center;verticalAlign=middle;resizable=0;points=[];" vertex="1" connectable="0" parent="lJokzmWv3TQioNyGY8T8-16">
          <mxGeometry x="-0.23" y="-1" relative="1" as="geometry">
            <mxPoint as="offset" />
          </mxGeometry>
        </mxCell>
        <mxCell id="lJokzmWv3TQioNyGY8T8-18" value="" style="endArrow=none;dashed=1;html=1;dashPattern=1 3;strokeWidth=2;rounded=0;" edge="1" parent="1">
          <mxGeometry width="50" height="50" relative="1" as="geometry">
            <mxPoint x="850" y="1320.6666666666667" as="sourcePoint" />
            <mxPoint x="850" y="360" as="targetPoint" />
          </mxGeometry>
        </mxCell>
        <mxCell id="lJokzmWv3TQioNyGY8T8-21" value="" style="group" vertex="1" connectable="0" parent="1">
          <mxGeometry x="850" y="1070" width="60" height="20" as="geometry" />
        </mxCell>
        <mxCell id="lJokzmWv3TQioNyGY8T8-19" value="" style="ellipse;whiteSpace=wrap;html=1;aspect=fixed;" vertex="1" parent="lJokzmWv3TQioNyGY8T8-21">
          <mxGeometry x="40" width="20" height="20" as="geometry" />
        </mxCell>
        <mxCell id="lJokzmWv3TQioNyGY8T8-20" value="" style="endArrow=none;html=1;rounded=0;exitX=0;exitY=0.5;exitDx=0;exitDy=0;" edge="1" parent="lJokzmWv3TQioNyGY8T8-21" source="lJokzmWv3TQioNyGY8T8-19">
          <mxGeometry width="50" height="50" relative="1" as="geometry">
            <mxPoint x="-30" y="60" as="sourcePoint" />
            <mxPoint y="10" as="targetPoint" />
          </mxGeometry>
        </mxCell>
        <mxCell id="lJokzmWv3TQioNyGY8T8-22" value="53mm" style="edgeLabel;html=1;align=center;verticalAlign=middle;resizable=0;points=[];" vertex="1" connectable="0" parent="lJokzmWv3TQioNyGY8T8-20">
          <mxGeometry y="1" relative="1" as="geometry">
            <mxPoint as="offset" />
          </mxGeometry>
        </mxCell>
        <mxCell id="lJokzmWv3TQioNyGY8T8-23" value="352mm 宽" style="text;html=1;strokeColor=none;fillColor=none;align=center;verticalAlign=middle;whiteSpace=wrap;rounded=0;" vertex="1" parent="1">
          <mxGeometry x="1000" y="310" width="60" height="30" as="geometry" />
        </mxCell>
        <mxCell id="lJokzmWv3TQioNyGY8T8-24" value="窗户距地面约 952 mm，&lt;br&gt;淋浴水龙头略低于窗台" style="text;html=1;strokeColor=none;fillColor=none;align=center;verticalAlign=middle;whiteSpace=wrap;rounded=0;" vertex="1" parent="1">
          <mxGeometry x="660" y="300" width="170" height="30" as="geometry" />
        </mxCell>
        <mxCell id="lJokzmWv3TQioNyGY8T8-27" value="高 230 mm" style="text;html=1;strokeColor=none;fillColor=none;align=center;verticalAlign=middle;whiteSpace=wrap;rounded=0;" vertex="1" parent="1">
          <mxGeometry x="870" y="1110" width="70" height="30" as="geometry" />
        </mxCell>
        <mxCell id="lJokzmWv3TQioNyGY8T8-32" value="" style="group" vertex="1" connectable="0" parent="1">
          <mxGeometry x="850" y="780" width="60" height="20" as="geometry" />
        </mxCell>
        <mxCell id="lJokzmWv3TQioNyGY8T8-33" value="" style="ellipse;whiteSpace=wrap;html=1;aspect=fixed;" vertex="1" parent="lJokzmWv3TQioNyGY8T8-32">
          <mxGeometry x="40" width="20" height="20" as="geometry" />
        </mxCell>
        <mxCell id="lJokzmWv3TQioNyGY8T8-34" value="" style="endArrow=none;html=1;rounded=0;exitX=0;exitY=0.5;exitDx=0;exitDy=0;" edge="1" parent="lJokzmWv3TQioNyGY8T8-32" source="lJokzmWv3TQioNyGY8T8-33">
          <mxGeometry width="50" height="50" relative="1" as="geometry">
            <mxPoint x="-30" y="60" as="sourcePoint" />
            <mxPoint y="10" as="targetPoint" />
          </mxGeometry>
        </mxCell>
        <mxCell id="lJokzmWv3TQioNyGY8T8-35" value="53mm" style="edgeLabel;html=1;align=center;verticalAlign=middle;resizable=0;points=[];" vertex="1" connectable="0" parent="lJokzmWv3TQioNyGY8T8-34">
          <mxGeometry y="1" relative="1" as="geometry">
            <mxPoint as="offset" />
          </mxGeometry>
        </mxCell>
        <mxCell id="lJokzmWv3TQioNyGY8T8-36" value="高 517 mm" style="text;html=1;strokeColor=none;fillColor=none;align=center;verticalAlign=middle;whiteSpace=wrap;rounded=0;" vertex="1" parent="1">
          <mxGeometry x="860" y="810" width="70" height="30" as="geometry" />
        </mxCell>
        <mxCell id="lJokzmWv3TQioNyGY8T8-37" value="" style="endArrow=none;dashed=1;html=1;dashPattern=1 3;strokeWidth=2;rounded=0;" edge="1" parent="1">
          <mxGeometry width="50" height="50" relative="1" as="geometry">
            <mxPoint x="1200" y="1330.666666666667" as="sourcePoint" />
            <mxPoint x="1200" y="370" as="targetPoint" />
          </mxGeometry>
        </mxCell>
      </root>
    </mxGraphModel>
  </diagram>
</mxfile>
